<svg xmlns="http://www.w3.org/2000/svg" width="18" height="18" viewBox="0 0 18 18">
  <defs>
    <style>
      .cls-1 {
        fill-rule: evenodd;
      }
    </style>
  </defs>
  <path id="facebook" class="cls-1" d="M18.008,1.12A1.133,1.133,0,0,0,16.883,0H1.133A1.133,1.133,0,0,0,.008,1.12V16.87A1.133,1.133,0,0,0,1.133,18h8.5V11H7.382V8.406h2.25V6.165c0-2.048,1.248-3.419,3.718-3.419a12.7,12.7,0,0,1,1.846.123V5.207H13.508a1.026,1.026,0,0,0-1.125,1.16V8.406h2.628L14.633,11h-2.25v7h4.5a1.133,1.133,0,0,0,1.125-1.125V1.12Z"/>
</svg>
