<svg xmlns="http://www.w3.org/2000/svg" width="18" height="18" viewBox="0 0 18 18">
  <defs>
    <style>
      .cls-1 {
        fill-rule: evenodd;
      }
    </style>
  </defs>
  <path id="linkedin" class="cls-1" d="M0.374,6.11V17.985H4.118V6.11H0.374Zm9.747,11.875H6.368V8.794S6.306,6.514,6.306,6.11H10l0.123,1.643A4.01,4.01,0,0,1,13.5,5.733c2.628,0,4.5,1.912,4.5,5.359v6.894H14.243V11.478c0-1.921-.914-2.684-2.039-2.684a2.06,2.06,0,0,0-2.083,2.3v6.894ZM2.228,4.2A2.105,2.105,0,0,0,4.5,2.089a2.093,2.093,0,0,0-2.232-2.1A2.1,2.1,0,0,0,0,2.089,2.087,2.087,0,0,0,2.2,4.2H2.228Z"/>
</svg>
