<svg xmlns="http://www.w3.org/2000/svg" width="18" height="18" viewBox="0 0 18 18">
  <defs>
    <style>
      .cls-1 {
        fill-rule: evenodd;
      }
    </style>
  </defs>
  <path id="twitter" class="cls-1" d="M17.783,3.918a7.2,7.2,0,0,1-2.127.589,3.661,3.661,0,0,0,1.626-2.048,7.412,7.412,0,0,1-2.329.9A3.82,3.82,0,0,0,12.237,2.2,3.676,3.676,0,0,0,8.554,5.878a3.847,3.847,0,0,0,.079.853,10.494,10.494,0,0,1-7.6-3.788,3.519,3.519,0,0,0-.5,1.793A3.674,3.674,0,0,0,2.182,7.794a3.7,3.7,0,0,1-1.67-.457V7.381A3.689,3.689,0,0,0,3.474,11a3.7,3.7,0,0,1-.984.132,3.633,3.633,0,0,1-.686-0.07A3.68,3.68,0,0,0,5.24,13.63,7.452,7.452,0,0,1,.661,15.379a5.835,5.835,0,0,1-.879-0.062,10.37,10.37,0,0,0,5.669,1.5,10.427,10.427,0,0,0,10.494-10.5V5.834A7.48,7.48,0,0,0,17.783,3.918Z"/>
</svg>
